<?xml version="1.0" encoding="UTF-8"?>
<svg width="635px" height="208px" viewBox="0 0 635 208" version="1.1" xmlns="http://www.w3.org/2000/svg" xmlns:xlink="http://www.w3.org/1999/xlink">
    <!-- Generator: Sketch 52.6 (67491) - http://www.bohemiancoding.com/sketch -->
    <title>Slice</title>
    <desc>Created with Sketch.</desc>
    <g id="Page-1" stroke="none" stroke-width="1" fill="none" fill-rule="evenodd">
        <g id="Group" transform="translate(32.000000, 41.000000)">
            <path d="M24.456,27.688 L38.464,27.688 L38.464,37.888 L24.456,37.888 L24.456,81.544 C24.456,82.9040068 24.5693322,83.9919959 24.796,84.808 C25.0226678,85.6240041 25.4533302,86.2586644 26.088,86.712 C26.7226698,87.1653356 27.606661,87.4599993 28.74,87.596 C29.873339,87.7320007 31.3466576,87.8 33.16,87.8 L38.464,87.8 L38.464,98 L29.624,98 C26.631985,98 24.0706773,97.796002 21.94,97.388 C19.8093227,96.979998 18.0866732,96.2320054 16.772,95.144 C15.4573268,94.0559946 14.4826698,92.5146766 13.848,90.52 C13.2133302,88.5253234 12.896,85.8960163 12.896,82.632 L12.896,37.888 L0.928,37.888 L0.928,27.688 L12.896,27.688 L12.896,6.608 L24.456,6.608 L24.456,27.688 Z" id="Path" fill="#E8E8E8"></path>
            <path d="M118.224,75.696 C116.682659,83.5840394 113.282693,89.5226467 108.024,93.512 C102.765307,97.5013533 96.1467066,99.496 88.168,99.496 C82.5466386,99.496 77.673354,98.5893424 73.548,96.776 C69.422646,94.9626576 65.9546807,92.4240163 63.144,89.16 C60.3333193,85.8959837 58.2253404,81.997356 56.82,77.464 C55.4146596,72.930644 54.6213342,67.9893601 54.44,62.64 C54.44,57.2906399 55.2559918,52.3946889 56.888,47.952 C58.5200082,43.5093111 60.8093186,39.6560163 63.756,36.392 C66.7026814,33.1279837 70.1933132,30.5893424 74.228,28.776 C78.2626868,26.9626576 82.6826426,26.056 87.488,26.056 C93.7440313,26.056 98.934646,27.3479871 103.06,29.932 C107.185354,32.5160129 110.494654,35.8026467 112.988,39.792 C115.481346,43.7813533 117.203995,48.1333098 118.156,52.848 C119.108005,57.5626902 119.493334,62.0506454 119.312,66.312 L66.68,66.312 C66.5893329,69.3946821 66.9519959,72.3186528 67.768,75.084 C68.5840041,77.8493472 69.8986576,80.2973227 71.712,82.428 C73.5253424,84.5586773 75.8373193,86.2586603 78.648,87.528 C81.4586807,88.7973397 84.767981,89.432 88.576,89.432 C93.4720245,89.432 97.4839844,88.298678 100.612,86.032 C103.740016,83.765322 105.802662,80.3200231 106.8,75.696 L118.224,75.696 Z M107.072,56.112 C106.890666,53.3919864 106.278672,50.8080122 105.236,48.36 C104.193328,45.9119878 102.788009,43.8040088 101.02,42.036 C99.2519912,40.2679912 97.1666787,38.8626719 94.764,37.82 C92.3613213,36.7773281 89.7093478,36.256 86.808,36.256 C83.815985,36.256 81.1186787,36.7773281 78.716,37.82 C76.3133213,38.8626719 74.2506753,40.2906576 72.528,42.104 C70.8053247,43.9173424 69.4453383,46.0253213 68.448,48.428 C67.4506617,50.8306787 66.8613342,53.3919864 66.68,56.112 L107.072,56.112 Z" id="Combined-Shape" fill="#E8E8E8"></path>
            <path d="M138.28,27.688 L149.16,27.688 L149.16,38.024 L149.432,38.024 C154.690693,30.0452934 162.261284,26.056 172.144,26.056 C176.496022,26.056 180.439982,26.9626576 183.976,28.776 C187.512018,30.5893424 190.005326,33.6719782 191.456,38.024 C193.813345,34.215981 196.918647,31.2693438 200.772,29.184 C204.625353,27.0986562 208.863977,26.056 213.488,26.056 C217.024018,26.056 220.219986,26.4413295 223.076,27.212 C225.932014,27.9826705 228.37999,29.1839918 230.42,30.816 C232.46001,32.4480082 234.046661,34.5559871 235.18,37.14 C236.313339,39.7240129 236.88,42.8293152 236.88,46.456 L236.88,98 L225.32,98 L225.32,51.896 C225.32,49.7199891 225.138668,47.6800095 224.776,45.776 C224.413332,43.8719905 223.733338,42.2173404 222.736,40.812 C221.738662,39.4066596 220.356009,38.2960041 218.588,37.48 C216.819991,36.6639959 214.530681,36.256 211.72,36.256 C206.007971,36.256 201.520016,37.8879837 198.256,41.152 C194.991984,44.4160163 193.36,48.7679728 193.36,54.208 L193.36,98 L181.8,98 L181.8,51.896 C181.8,49.629322 181.596002,47.5440095 181.188,45.64 C180.779998,43.7359905 180.077338,42.0813404 179.08,40.676 C178.082662,39.2706596 176.745342,38.1826705 175.068,37.412 C173.390658,36.6413295 171.237346,36.256 168.608,36.256 C165.253317,36.256 162.374679,36.9359932 159.972,38.296 C157.569321,39.6560068 155.620007,41.2879905 154.124,43.192 C152.627993,45.0960095 151.540003,47.0679898 150.86,49.108 C150.179997,51.1480102 149.84,52.8479932 149.84,54.208 L149.84,98 L138.28,98 L138.28,27.688 Z" id="Path" fill="#E8E8E8"></path>
            <path d="M261.696,27.688 L273.256,27.688 L273.256,37.208 L273.528,37.208 C275.43201,33.3093138 278.42398,30.4760088 282.504,28.708 C286.58402,26.9399912 291.071976,26.056 295.968,26.056 C301.408027,26.056 306.145313,27.0533234 310.18,29.048 C314.214687,31.0426766 317.56932,33.739983 320.244,37.14 C322.91868,40.540017 324.935993,44.4613111 326.296,48.904 C327.656007,53.3466889 328.336,58.0613084 328.336,63.048 C328.336,68.0346916 327.678673,72.7493111 326.364,77.192 C325.049327,81.6346889 323.05468,85.5106501 320.38,88.82 C317.70532,92.1293499 314.350687,94.7359905 310.316,96.64 C306.281313,98.5440095 301.58936,99.496 296.24,99.496 C294.517325,99.496 292.590677,99.3146685 290.46,98.952 C288.329323,98.5893315 286.221344,98.0000041 284.136,97.184 C282.050656,96.3679959 280.078676,95.2573404 278.22,93.852 C276.361324,92.4466596 274.79734,90.7013438 273.528,88.616 L273.256,88.616 L273.256,124.792 L261.696,124.792 L261.696,27.688 Z M316.096,62.232 C316.096,58.9679837 315.665338,55.7720156 314.804,52.644 C313.942662,49.5159844 312.628009,46.7280122 310.86,44.28 C309.091991,41.8319878 306.825347,39.8826739 304.06,38.432 C301.294653,36.9813261 298.053352,36.256 294.336,36.256 C290.437314,36.256 287.128014,37.026659 284.408,38.568 C281.687986,40.109341 279.466675,42.1266542 277.744,44.62 C276.021325,47.1133458 274.774671,49.9466508 274.004,53.12 C273.233329,56.2933492 272.848,59.5119837 272.848,62.776 C272.848,66.2213506 273.255996,69.5533172 274.072,72.772 C274.888004,75.9906828 276.179991,78.8239878 277.948,81.272 C279.716009,83.7200122 282.005319,85.6919925 284.816,87.188 C287.626681,88.6840075 291.026647,89.432 295.016,89.432 C299.005353,89.432 302.33732,88.661341 305.012,87.12 C307.68668,85.578659 309.839992,83.5386794 311.472,81 C313.104008,78.4613206 314.282663,75.5600163 315.008,72.296 C315.733337,69.0319837 316.096,65.6773506 316.096,62.232 Z" id="Combined-Shape" fill="#E8E8E8"></path>
            <polygon id="Path" fill="#E8E8E8" points="349.616 0.896 361.176 0.896 361.176 98 349.616 98"></polygon>
            <path d="M448.416,97.728 C446.421323,98.9066726 443.656018,99.496 440.12,99.496 C437.127985,99.496 434.748009,98.6573417 432.98,96.98 C431.211991,95.3026583 430.328,92.560019 430.328,88.752 C427.154651,92.560019 423.460021,95.3026583 419.244,96.98 C415.027979,98.6573417 410.472024,99.496 405.576,99.496 C402.402651,99.496 399.388014,99.133337 396.532,98.408 C393.675986,97.682663 391.205344,96.549341 389.12,95.008 C387.034656,93.466659 385.380006,91.4493458 384.156,88.956 C382.931994,86.4626542 382.32,83.4480177 382.32,79.912 C382.32,75.9226467 382.999993,72.6586794 384.36,70.12 C385.720007,67.5813206 387.510656,65.5186746 389.732,63.932 C391.953344,62.3453254 394.491986,61.1440041 397.348,60.328 C400.204014,59.5119959 403.127985,58.8320027 406.12,58.288 C409.293349,57.6533302 412.307986,57.1773349 415.164,56.86 C418.020014,56.5426651 420.535989,56.0893363 422.712,55.5 C424.888011,54.9106637 426.61066,54.049339 427.88,52.916 C429.14934,51.782661 429.784,50.1280109 429.784,47.952 C429.784,45.4133206 429.308005,43.373341 428.356,41.832 C427.403995,40.290659 426.180007,39.1120041 424.684,38.296 C423.187993,37.4799959 421.510676,36.9360014 419.652,36.664 C417.793324,36.3919986 415.957342,36.256 414.144,36.256 C409.247976,36.256 405.168016,37.185324 401.904,39.044 C398.639984,40.902676 396.872001,44.4159742 396.6,49.584 L385.04,49.584 C385.221334,45.2319782 386.127992,41.560015 387.76,38.568 C389.392008,35.575985 391.567986,33.150676 394.288,31.292 C397.008014,29.433324 400.113316,28.0960041 403.604,27.28 C407.094684,26.4639959 410.834647,26.056 414.824,26.056 C417.997349,26.056 421.147984,26.2826644 424.276,26.736 C427.404016,27.1893356 430.237321,28.1186596 432.776,29.524 C435.314679,30.9293404 437.354659,32.9013206 438.896,35.44 C440.437341,37.9786794 441.208,41.2879796 441.208,45.368 L441.208,81.544 C441.208,84.2640136 441.366665,86.2586603 441.684,87.528 C442.001335,88.7973397 443.066658,89.432 444.88,89.432 C445.877338,89.432 447.055993,89.2053356 448.416,88.752 L448.416,97.728 Z M429.648,61.688 C428.197326,62.7760054 426.293345,63.5693308 423.936,64.068 C421.578655,64.5666692 419.108013,64.9746651 416.524,65.292 C413.939987,65.6093349 411.333346,65.971998 408.704,66.38 C406.074654,66.788002 403.717344,67.4453288 401.632,68.352 C399.546656,69.2586712 397.846673,70.5506583 396.532,72.228 C395.217327,73.9053417 394.56,76.1946522 394.56,79.096 C394.56,81.0000095 394.945329,82.6093268 395.716,83.924 C396.486671,85.2386732 397.483994,86.3039959 398.708,87.12 C399.932006,87.9360041 401.359992,88.5253315 402.992,88.888 C404.624008,89.2506685 406.346658,89.432 408.16,89.432 C411.968019,89.432 415.231986,88.9106719 417.952,87.868 C420.672014,86.8253281 422.893325,85.5106746 424.616,83.924 C426.338675,82.3373254 427.607996,80.614676 428.424,78.756 C429.240004,76.897324 429.648,75.1520082 429.648,73.52 L429.648,61.688 Z" id="Combined-Shape" fill="#3F3F3F"></path>
            <path d="M473.232,75.832 C473.322667,78.3706794 473.911995,80.5239912 475,82.292 C476.088005,84.0600088 477.515991,85.4653281 479.284,86.508 C481.052009,87.5506719 483.046656,88.2986644 485.268,88.752 C487.489344,89.2053356 489.778655,89.432 492.136,89.432 C493.949342,89.432 495.853323,89.2960014 497.848,89.024 C499.842677,88.7519986 501.678658,88.253337 503.356,87.528 C505.033342,86.802663 506.415995,85.7373404 507.504,84.332 C508.592005,82.9266596 509.136,81.1360109 509.136,78.96 C509.136,75.967985 508.002678,73.701341 505.736,72.16 C503.469322,70.618659 500.636017,69.3720048 497.236,68.42 C493.835983,67.4679952 490.141353,66.6066705 486.152,65.836 C482.162647,65.0653295 478.468017,63.9773404 475.068,62.572 C471.667983,61.1666596 468.834678,59.1946794 466.568,56.656 C464.301322,54.1173206 463.168,50.581356 463.168,46.048 C463.168,42.5119823 463.961325,39.4746794 465.548,36.936 C467.134675,34.3973206 469.174654,32.3346746 471.668,30.748 C474.161346,29.1613254 476.971984,27.9826705 480.1,27.212 C483.228016,26.4413295 486.333318,26.056 489.416,26.056 C493.405353,26.056 497.077317,26.3959966 500.432,27.076 C503.786683,27.7560034 506.755987,28.9346583 509.34,30.612 C511.924013,32.2893417 513.986659,34.5559857 515.528,37.412 C517.069341,40.2680143 517.975999,43.8266454 518.248,48.088 L506.688,48.088 C506.506666,45.821322 505.917338,43.9400075 504.92,42.444 C503.922662,40.9479925 502.653341,39.7466712 501.112,38.84 C499.570659,37.9333288 497.870676,37.276002 496.012,36.868 C494.153324,36.459998 492.27201,36.256 490.368,36.256 C488.645325,36.256 486.900009,36.3919986 485.132,36.664 C483.363991,36.9360014 481.754674,37.4119966 480.304,38.092 C478.853326,38.7720034 477.674671,39.678661 476.768,40.812 C475.861329,41.945339 475.408,43.4186576 475.408,45.232 C475.408,47.2266766 476.11066,48.8813268 477.516,50.196 C478.92134,51.5106732 480.711989,52.5986624 482.888,53.46 C485.064011,54.3213376 487.511986,55.0466637 490.232,55.636 C492.952014,56.2253363 495.671986,56.8373302 498.392,57.472 C501.293348,58.1066698 504.126653,58.8773288 506.892,59.784 C509.657347,60.6906712 512.105323,61.8919925 514.236,63.388 C516.366677,64.8840075 518.089327,66.765322 519.404,69.032 C520.718673,71.298678 521.376,74.1093166 521.376,77.464 C521.376,81.7253546 520.492009,85.2613193 518.724,88.072 C516.955991,90.8826807 514.644014,93.1493247 511.788,94.872 C508.931986,96.5946753 505.713351,97.7959966 502.132,98.476 C498.550649,99.1560034 494.992018,99.496 491.456,99.496 C487.557314,99.496 483.840018,99.0880041 480.304,98.272 C476.767982,97.4559959 473.640014,96.118676 470.92,94.26 C468.199986,92.401324 466.024008,89.9533485 464.392,86.916 C462.759992,83.8786515 461.853334,80.1840218 461.672,75.832 L473.232,75.832 Z" id="Path" fill="#3F3F3F"></path>
            <path d="M557.208,27.688 L571.216,27.688 L571.216,37.888 L557.208,37.888 L557.208,81.544 C557.208,82.9040068 557.321332,83.9919959 557.548,84.808 C557.774668,85.6240041 558.20533,86.2586644 558.84,86.712 C559.47467,87.1653356 560.358661,87.4599993 561.492,87.596 C562.625339,87.7320007 564.098658,87.8 565.912,87.8 L571.216,87.8 L571.216,98 L562.376,98 C559.383985,98 556.822677,97.796002 554.692,97.388 C552.561323,96.979998 550.838673,96.2320054 549.524,95.144 C548.209327,94.0559946 547.23467,92.5146766 546.6,90.52 C545.96533,88.5253234 545.648,85.8960163 545.648,82.632 L545.648,37.888 L533.68,37.888 L533.68,27.688 L545.648,27.688 L545.648,6.608 L557.208,6.608 L557.208,27.688 Z" id="Path" fill="#3F3F3F"></path>
        </g>
    </g>
</svg>